HIERARCHY
ROOT joint_Root
{
  OFFSET 0.0 0.0 0.0
  CHANNELS 3 Zrotation Xrotation Yrotation
  JOINT Hips
  {
    OFFSET 0.0 1.12766 -0.0
    CHANNELS 6 Xposition Yposition Zposition Zrotation Xrotation Yrotation
    JOINT Spine
    {
      OFFSET -0.0 0.18883 0.0
      CHANNELS 3 Zrotation Xrotation Yrotation
      JOINT Chest
      {
        OFFSET -0.0 0.10792 0.0
        CHANNELS 3 Zrotation Xrotation Yrotation
        JOINT Neck
        {
          OFFSET 0.0 0.19651 0.00225
          CHANNELS 3 Zrotation Xrotation Yrotation
          JOINT Head
          {
            OFFSET -0.0 0.07748 0.0
            CHANNELS 3 Zrotation Xrotation Yrotation
            End Site
            {
              OFFSET 0.0 0.012 0.0
            }
          }
        }
        JOINT Shoulder_L
        {
          OFFSET 0.05976 0.15595 -0.00113
          CHANNELS 3 Zrotation Xrotation Yrotation
          JOINT UpperArm_L
          {
            OFFSET 0.06418 0.0 0.0
            CHANNELS 3 Zrotation Xrotation Yrotation
            JOINT LowerArm_L
            {
              OFFSET 0.0 -0.29194 0.0
              CHANNELS 3 Zrotation Xrotation Yrotation
              JOINT Hand_L
              {
                OFFSET 0.0 -0.2675 0.0
                CHANNELS 3 Zrotation Xrotation Yrotation
                End Site
                {
                  OFFSET 0.0 -0.012 0.0
                }
              }
            }
          }
        }
        JOINT Shoulder_R
        {
          OFFSET -0.05976 0.15596 -0.00113
          CHANNELS 3 Zrotation Xrotation Yrotation
          JOINT UpperArm_R
          {
            OFFSET -0.06418 0.0 0.0
            CHANNELS 3 Zrotation Xrotation Yrotation
            JOINT LowerArm_R
            {
              OFFSET -0.0 -0.29195 0.0
              CHANNELS 3 Zrotation Xrotation Yrotation
              JOINT Hand_R
              {
                OFFSET 0.0 -0.2675 0.0
                CHANNELS 3 Zrotation Xrotation Yrotation
                End Site
                {
                  OFFSET 0.0 -0.012 0.0
                }
              }
            }
          }
        }
      }
    }
    JOINT UpperLeg_L
    {
      OFFSET 0.07763 -0.02631 0.0
      CHANNELS 3 Zrotation Xrotation Yrotation
      JOINT LowerLeg_L
      {
        OFFSET 0.0 -0.46897 0.0
        CHANNELS 3 Zrotation Xrotation Yrotation
        JOINT Foot_L
        {
          OFFSET 0.0 -0.49182 0.0
          CHANNELS 3 Zrotation Xrotation Yrotation
          JOINT Toes_L
          {
            OFFSET 0.0 -0.14105 0.0
            CHANNELS 3 Zrotation Xrotation Yrotation
            End Site
            {
              OFFSET 0.0 -0.012 0.0
            }
          }
        }
      }
    }
    JOINT UpperLeg_R
    {
      OFFSET -0.07763 -0.02631 0.0
      CHANNELS 3 Zrotation Xrotation Yrotation
      JOINT LowerLeg_R
      {
        OFFSET 0.0 -0.46897 -0.0
        CHANNELS 3 Zrotation Xrotation Yrotation
        JOINT Foot_R
        {
          OFFSET -0.0 -0.49182 0.0
          CHANNELS 3 Zrotation Xrotation Yrotation
          JOINT Toes_R
          {
            OFFSET -0.0 -0.14105 0.0
            CHANNELS 3 Zrotation Xrotation Yrotation
            End Site
            {
              OFFSET 0.0 -0.012 0.0
            }
          }
        }
      }
    }
  }
}
MOTION
Frames: 20
Frame Time: 0.03333333333333333
0.0 -1.82938 0.0 -0.03345 1.07879 0.01759 -4.41127 -0.15868 4.36479 1.2472 -0.61638 0.02854 2.49576 -1.88841 0.07047 -1.58677 -5.85046 -2.43403 -1.20197 4.07541 -3.99184 -1.41689 0.41204 -5.2129 14.40421 -9.5152 10.11051 0.00115 -23.54746 -13.6055 26.7117 -0.26032 -5.31177 4.99736 -0.30279 4.13429 -17.76578 18.51575 -19.47218 -7e-05 -4.8665 3.18451 -23.83278 -4.69616 5.47069 3.53119 -16.97263 -3.76601 -0.01776 70.66115 -0.37985 5.48471 -34.45225 5.59317 0.64024 -21.53396 0.56371 10.10988 -17.62108 -6.21582 -0.0649 30.47085 -0.01229 -27.63217 -60.07634 -24.60699 -0.02355 -16.71779 -0.01944 
0.0 -1.82938 0.0 -0.03227 1.08398 0.06139 -3.45914 -0.20103 3.69697 0.88505 -0.44185 0.53073 1.78541 -1.53188 1.06853 -1.35189 -5.78056 -2.42334 -1.29975 4.0921 -4.52843 -1.28941 0.42987 -5.02152 13.47725 -6.41043 10.78514 0.00102 -18.7417 -12.00221 24.6318 -0.14641 -5.30781 4.75738 -0.20224 4.76404 -18.28906 14.55496 -17.90594 0.00012 -8.13325 2.94232 -24.91877 -5.34421 5.49394 1.17742 -22.25272 -4.86349 -0.02165 71.65617 -0.47599 13.15544 -39.22829 11.41175 0.66905 -21.74416 0.58938 9.46303 -13.83564 -5.79876 -0.06147 28.70625 -0.01767 -28.48606 -61.83188 -25.68132 -0.00256 -16.58959 -0.00212 
0.0 -1.82938 0.0 -0.02981 1.08894 0.10371 -2.16259 0.0749 2.62707 0.37354 -0.34064 1.03791 0.77643 -1.33047 2.07851 -1.10081 -5.8071 -2.23813 -1.29167 4.01898 -4.83081 -1.11023 0.45337 -4.62481 12.85427 -2.5862 12.24577 0.00043 -14.93743 -10.15071 22.73138 0.0354 -5.30131 4.3553 -0.06874 5.53912 -18.75675 10.47187 -16.73508 -1e-05 -11.69273 2.77941 -25.71202 -5.46261 5.49818 -0.98839 -26.46211 -5.30505 -0.0134 68.3076 -0.48644 19.84048 -42.00777 16.90954 0.65392 -21.63381 0.57588 8.20803 -10.13573 -5.7308 -0.05485 26.33875 -0.0287 -27.67301 -63.56496 -24.77331 -0.01219 -16.6485 -0.01007 
0.0 -1.82938 0.0 -0.02739 1.09241 0.1443 -1.09572 0.59102 1.81587 -0.01775 -0.32944 1.38424 0.00473 -1.31489 2.76902 -1.05444 -5.83322 -2.01847 -1.35277 3.85404 -4.95413 -1.16393 0.43619 -4.28294 12.50942 1.90646 14.75326 0.0003 -12.06108 -8.88486 21.39691 -0.06239 -5.30479 3.70817 0.08609 6.24704 -19.2336 6.23815 -16.32524 -0.00019 -14.98583 2.98103 -26.61858 -5.71851 5.50746 -2.54176 -29.50431 -5.9811 -0.0156 61.20478 -0.41409 22.58845 -44.41034 19.15014 0.67156 -21.76245 0.59162 6.9113 -6.60764 -6.7311 -0.04621 23.47869 0.01198 -25.25789 -65.26237 -22.02966 -0.01447 -16.6624 -0.01195 
0.0 -1.82938 0.0 -0.02606 1.09335 0.18346 -0.65583 1.3437 0.98023 -0.18608 -0.42135 1.67201 -0.32185 -1.50339 3.34348 -0.96725 -5.98167 -1.8132 -1.52812 3.73084 -4.9355 -1.33495 0.39327 -3.84124 12.42553 6.83396 17.89944 4e-05 -10.06103 -8.14008 20.22593 -0.26852 -5.31212 3.11247 0.19848 6.62001 -19.94259 1.79053 -15.97364 -0.00012 -17.64434 3.19549 -27.94388 -5.84903 5.51209 -2.77322 -30.92268 -6.10345 -0.01218 50.27132 -0.29838 22.64591 -47.26225 19.60655 0.64553 -21.57254 0.56842 6.66183 -3.35909 -6.24765 -0.03693 20.2496 0.08846 -25.37774 -65.94785 -22.38326 0.0571 -16.57319 0.03569 
0.0 -1.82938 0.0 -0.025 1.09167 0.22299 -0.78577 2.05657 -0.43714 -0.17182 -0.50607 2.04289 -0.27862 -1.67279 4.0855 -0.88324 -6.32872 -1.46488 -1.62053 3.63647 -4.90755 -1.79882 0.28252 -3.25114 12.87832 12.02062 21.22309 0.00016 -8.60737 -7.56184 19.47145 -0.45818 -5.31892 2.90713 0.24686 6.97096 -20.94903 -2.53076 -16.0041 -0.0001 -19.95911 3.98386 -28.71671 -5.69197 5.50647 -1.52371 -30.02334 -4.64447 -0.00734 35.30655 -0.19324 21.1391 -49.11435 18.48761 0.65027 -21.60732 0.57265 7.13299 0.04251 -4.89261 -0.02818 16.8516 0.10204 -27.84371 -66.13506 -24.05797 -0.02091 -16.7018 -0.01727 
0.0 -1.82938 0.0 -0.02402 1.087 0.26556 -1.36461 2.41784 -2.1471 0.03414 -0.52452 2.43358 0.14781 -1.70113 4.86917 -0.83717 -6.50511 -0.98428 -1.78965 3.43106 -4.85137 -2.29289 0.14767 -2.48318 13.45117 17.06144 24.54317 -4e-05 -7.21298 -7.25587 19.20453 -0.32327 -5.31413 2.678 0.30613 7.53739 -21.7278 -6.31601 -16.23215 0.0 -21.85592 4.29773 -29.80522 -5.97988 5.5169 0.49531 -26.07596 -2.01424 -0.00821 16.80597 -0.11448 16.03616 -50.98342 13.45914 0.63534 -21.49808 0.55934 7.66872 2.67693 -4.36149 -0.02608 15.85929 -3e-05 -28.03849 -66.68462 -22.70596 0.00596 -17.76972 -0.43237 
0.0 -1.82938 0.0 -0.02291 1.07714 0.31349 -2.11925 2.58283 -3.59623 0.31851 -0.53131 2.77284 0.72568 -1.6999 5.55051 -0.87832 -6.46864 -0.57199 -1.82092 3.19589 -4.89537 -2.14001 0.15137 -1.71276 13.47454 21.3728 27.71736 0.00011 -5.69357 -7.04129 19.60066 0.02429 -5.30169 2.09226 0.40009 8.0054 -22.01758 -9.30953 -15.61753 -0.0 -23.42696 4.81426 -31.01869 -6.00742 5.51777 1.97202 -24.34513 0.5556 -0.00128 5.71347 -0.00691 8.3288 -55.69188 6.31441 0.63249 -21.47718 0.55681 8.00187 4.34717 -3.53726 -0.03141 17.83066 -0.06407 -27.12879 -68.06158 -22.34369 0.04936 -19.87832 -1.23848 
0.0 -1.82938 0.0 -0.01973 1.06785 0.36479 -2.2563 3.13458 -4.40467 0.39109 -0.72844 2.97329 0.8859 -2.0886 5.95435 -0.80416 -6.43005 -0.4089 -1.93828 3.1266 -4.9749 -1.89234 0.18577 -1.02608 13.61468 24.8891 31.61274 -0.00013 -4.18973 -7.29128 20.33505 0.57706 -5.28194 1.73384 0.44416 8.00935 -22.37954 -11.49046 -13.97873 7e-05 -24.22667 5.03052 -31.73828 -6.2713 5.52737 2.08024 -24.06641 -0.20289 -2e-05 0.28607 0.03313 6.1378 -58.86902 4.44481 0.62611 -21.4304 0.55113 7.30567 5.21013 -4.2836 -0.03844 20.40974 -0.08593 -22.45982 -68.4962 -17.96249 -0.05176 -23.88366 -2.37521 
0.0 -1.82938 0.0 -0.01554 1.05949 0.42179 -1.97147 3.68852 -5.2569 0.34317 -1.00554 3.12985 0.81142 -2.64342 6.27005 -0.75856 -6.26909 -0.19611 -1.97222 3.24854 -5.0204 -1.71494 0.21019 -0.4083 13.91034 27.74063 34.34816 -9e-05 -2.83573 -8.19454 21.25783 1.17888 -5.26042 1.64998 0.45269 7.95126 -22.54794 -12.86711 -12.78346 -0.0 -24.19333 5.57457 -32.27979 -6.62786 5.54025 1.64504 -24.38902 1.21326 -0.00042 0.86631 0.03241 3.13521 -58.88892 0.68645 0.60715 -21.29106 0.53425 6.16398 5.91025 -4.44161 -0.0455 23.06276 -0.04382 -18.8982 -66.11916 -14.09233 -0.81037 -31.12971 -3.93838 
0.0 -1.82938 0.0 -0.01001 1.05329 0.48393 -0.62581 4.3706 -5.01413 -0.09274 -1.38663 3.00546 -0.04374 -3.42905 6.01498 -0.68186 -6.24372 -0.21788 -1.97322 3.43882 -5.05732 -1.69831 0.20658 -0.15767 14.73951 29.49328 34.2548 0.0002 -1.31709 -7.77485 22.03295 2.08399 -5.22813 2.09611 0.38911 7.72395 -22.56019 -12.70339 -12.58599 5e-05 -24.42211 6.47259 -32.58932 -6.43555 5.53328 -0.16404 -29.2941 1.84294 0.00366 11.94443 0.19649 1.30755 -53.2858 -1.14951 0.71016 -22.04241 0.62603 4.26176 6.32004 -4.8516 -0.05194 25.84708 0.00863 -19.15044 -62.23956 -13.49426 -2.63523 -36.15903 -4.57317 
0.0 -1.82938 0.0 -0.00384 1.04931 0.54983 0.97407 4.96626 -4.14038 -0.64563 -1.92621 2.77596 -1.13366 -4.53471 5.53934 -0.55732 -5.87048 -0.55597 -1.84284 3.90287 -5.06849 -1.72122 0.20379 -0.26138 15.68237 30.56156 33.285 -4e-05 -0.22464 -7.04699 22.74727 2.70178 -5.20598 3.0844 0.22663 7.05789 -22.58128 -10.77458 -12.19874 -1e-05 -24.48691 6.19491 -32.59475 -6.59357 5.53899 -3.0105 -30.97582 0.84225 0.00596 17.00886 0.13781 2.3042 -44.20413 -1.38805 0.66332 -21.70248 0.58427 1.95942 6.09027 -6.23936 -0.05986 29.51798 0.04435 -17.91255 -56.12474 -11.71695 -6.33384 -43.28473 -5.66983 
0.0 -1.82938 0.0 0.00243 1.04769 0.61869 2.43257 4.44371 -2.90368 -1.19134 -2.1093 2.47975 -2.23534 -4.92178 4.92477 -0.59832 -5.5845 -0.94131 -1.58687 4.70418 -5.2393 -1.65529 0.22918 -0.52087 16.54463 30.34461 31.59975 -0.0152 0.0014 -8.60951 23.28131 3.13186 -5.19333 3.9057 0.08856 6.71666 -21.77702 -7.41518 -13.08707 2e-05 -24.4043 6.66312 -32.38126 -6.9915 5.55342 -6.33347 -30.77417 -2.45258 0.00971 24.09469 0.05044 4.24548 -46.33055 0.68875 0.56259 -20.96189 0.49466 -0.58582 5.64931 -7.86293 -0.06477 34.43298 0.09787 -14.25228 -45.84525 -8.08417 -10.8192 -53.25564 -9.93933 
0.0 -1.82938 0.0 0.00823 1.04615 0.68461 3.25259 2.78776 -1.223 -1.46145 -1.72772 2.19172 -2.80823 -4.16419 4.34494 -0.81096 -5.55351 -1.38402 -1.69824 5.04229 -5.44519 -1.49507 0.28718 -1.1194 16.7081 28.58969 30.15162 -0.0001 -0.64793 -9.50763 23.36455 3.12716 -5.19083 4.13028 0.03646 6.45446 -20.40515 -3.48395 -14.71657 -6e-05 -24.083 6.8178 -31.95306 -6.93606 5.55141 -9.17222 -28.40456 -5.84144 0.01737 30.5193 0.0277 7.08672 -53.03373 3.93028 0.2666 -18.70876 0.23311 -2.5863 3.61095 -8.15557 -0.07552 42.86426 0.12618 -10.20298 -34.10553 -6.95926 -7.34209 -45.95642 -6.61923 
0.0 -1.82938 0.0 0.01416 1.04307 0.74102 3.88598 1.06692 -0.17391 -1.6193 -1.11147 1.94185 -3.15625 -2.93167 3.85467 -0.89757 -5.72657 -1.58892 -1.865 4.65196 -5.20132 -1.55753 0.29137 -1.80238 16.23385 25.90771 29.88212 2e-05 -2.78681 -8.43464 23.13172 2.19804 -5.22405 4.59521 -0.06731 6.0422 -19.6919 -0.40974 -14.56328 -0.00018 -22.28889 5.50874 -31.33059 -7.11699 5.55792 -10.74805 -25.23603 -6.40718 0.02798 34.56579 0.05263 8.93355 -58.27647 5.22397 0.16502 -17.90845 0.14401 -3.95942 -1.92342 -5.93977 -0.08919 53.82079 0.12206 -6.04367 -22.14153 -8.70255 -0.92184 -21.90259 -0.77472 
0.0 -1.82938 0.0 0.0181 1.04272 0.79163 4.7355 0.19304 -0.16143 -1.83599 -0.75466 1.61175 -3.61553 -2.21576 3.2002 -1.05592 -5.77315 -1.07483 -1.74855 4.27252 -4.4923 -1.69829 0.26336 -1.96209 15.87245 22.35827 28.11428 -2e-05 -4.8727 -8.35544 22.81808 1.42298 -5.25177 4.94086 -0.10982 6.1774 -18.745 2.00552 -14.49981 5e-05 -19.27371 5.25856 -30.28672 -7.56862 5.57435 -11.37161 -21.89533 -4.70938 0.03631 35.83168 0.08608 9.07725 -62.15538 4.37324 0.10182 -17.40308 0.08873 -4.44227 -8.39321 -3.44232 -0.11303 63.20879 0.27873 -8.84209 -22.01234 -12.07268 -0.84895 -21.50378 -0.71253 
0.0 -1.82938 0.0 0.0177 1.04691 0.83994 4.71806 -0.38557 0.2484 -1.74227 -0.51122 1.06187 -3.45102 -1.71048 2.10844 -1.34481 -5.57107 -0.53821 -1.83225 4.09511 -3.61436 -1.98377 0.20155 -2.07873 15.95936 17.94638 23.92746 -3e-05 -6.72688 -7.88873 23.43634 1.40161 -5.25253 5.00085 -0.10742 6.30749 -17.37522 4.51566 -15.54594 -0.00011 -16.21599 5.73063 -29.52707 -7.43113 5.56938 -10.74038 -17.77706 -3.01519 0.03862 34.83635 0.12138 7.40128 -64.88147 1.83128 0.08863 -17.29689 0.07721 -3.54754 -14.59291 -1.99299 -0.14851 69.63647 0.48752 -15.46261 -29.76648 -17.27668 -0.8729 -21.63519 -0.73295 
0.0 -1.82938 0.0 0.01501 1.05209 0.88575 3.73656 -0.55577 1.48118 -1.31505 -0.44322 0.45143 -2.61651 -1.55296 0.89286 -1.74925 -5.205 -0.52795 -1.96452 4.35277 -3.02002 -2.09508 0.19374 -2.53852 15.99605 12.84764 19.85535 -5e-05 -8.73098 -7.43085 24.21856 1.62079 -5.2447 4.78537 -0.11094 5.88268 -15.96869 7.54382 -16.97039 -0.00025 -13.666 4.83822 -28.03902 -6.68504 5.54248 -9.46544 -13.76357 -3.13857 0.03822 33.07894 0.1255 5.95993 -66.89858 0.06906 0.05983 -17.06439 0.05209 -1.84861 -20.03221 -1.85419 -0.15664 71.22512 0.66644 -24.00598 -33.28519 -22.11091 -0.84276 -21.46971 -0.70725 
0.0 -1.82938 0.0 0.01105 1.0582 0.93011 2.42218 -0.38626 3.15329 -0.79312 -0.53216 -0.08566 -1.58917 -1.71953 -0.17876 -2.0743 -4.87126 -0.91854 -2.01302 5.02787 -2.82828 -1.77149 0.28813 -3.25099 15.62082 7.2666 17.3142 -0.00012 -10.89098 -7.18961 24.31459 1.32649 -5.25522 4.55921 -0.14188 5.06472 -14.92665 10.87178 -18.86314 -0.00017 -11.01297 4.02378 -25.74992 -6.19595 5.52466 -8.0777 -9.66498 -4.94783 0.03325 30.16726 0.0975 6.58564 -68.04663 1.00814 0.03896 -16.8951 0.0339 -0.20575 -24.64404 -1.92486 -0.13479 68.63819 0.67179 -30.31602 -35.84555 -28.074 -0.81298 -21.30542 -0.68187 
0.0 -1.82938 0.0 0.00605 1.06331 0.97265 1.20837 0.17753 4.68927 -0.344 -0.73533 -0.50667 -0.70619 -2.12396 -1.01827 -2.19669 -4.75741 -1.33494 -2.02455 5.73 -2.83265 -1.36105 0.39296 -4.02417 15.12672 1.9231 15.47594 0.00012 -14.14254 -7.25677 24.42021 1.25092 -5.25792 4.61715 -0.21652 4.28549 -14.38533 14.30517 -20.4968 5e-05 -8.51531 3.68236 -24.65566 -6.13552 5.52247 -6.21717 -5.86749 -5.52114 0.02555 26.54459 0.04037 4.7451 -68.8264 -0.89029 0.02888 -16.8131 0.02513 1.25456 -28.00405 -1.42391 -0.09746 61.89524 0.57482 -33.69473 -38.56715 -31.74408 -0.76662 -21.04859 -0.64246 
